<svg width="40" height="40" viewBox="0 0 40 40" fill="none" xmlns="http://www.w3.org/2000/svg">
<path d="M23.2333 8.33334L31.6667 16.7667L15.1033 33.3333C14.6419 33.795 14.068 34.1282 13.4383 34.3L4.91168 36.625C4.69917 36.6827 4.47519 36.6832 4.26242 36.6264C4.04965 36.5697 3.85564 36.4578 3.70002 36.302C3.5444 36.1462 3.43269 35.9521 3.37621 35.7393C3.31972 35.5264 3.32046 35.3025 3.37835 35.09L5.70335 26.5633C5.87518 25.9337 6.20839 25.3598 6.67001 24.8983L23.23 8.33334H23.2333ZM35.05 4.95C36.1683 6.06834 36.7966 7.58512 36.7966 9.16667C36.7966 10.7482 36.1683 12.265 35.05 13.3833L33.4333 15L25 6.56667L26.6167 4.95C27.735 3.83169 29.2518 3.20343 30.8333 3.20343C32.4149 3.20343 33.9317 3.83169 35.05 4.95V4.95Z" fill="white"/>
</svg>
