<svg width="26" height="28" viewBox="0 0 26 28" fill="none" xmlns="http://www.w3.org/2000/svg">
<path d="M6.97917 4.5C6.69737 4.5 6.42712 4.61194 6.22787 4.8112C6.02861 5.01046 5.91667 5.28071 5.91667 5.5625V11.9375C5.91667 12.524 6.39267 13 6.97917 13H14.7708C15.0526 13 15.3229 12.8881 15.5221 12.6888C15.7214 12.4895 15.8333 12.2193 15.8333 11.9375V5.5625C15.8333 5.28071 15.7214 5.01046 15.5221 4.8112C15.3229 4.61194 15.0526 4.5 14.7708 4.5H6.97917ZM8.04167 10.875V6.625H13.7083V10.875H8.04167ZM5.5625 0.25C4.52926 0.25 3.53834 0.660453 2.80773 1.39106C2.07712 2.12167 1.66667 3.11259 1.66667 4.14583V25.0417H1.3125C1.03071 25.0417 0.760456 25.1536 0.561199 25.3529C0.361942 25.5521 0.25 25.8224 0.25 26.1042C0.25 26.386 0.361942 26.6562 0.561199 26.8555C0.760456 27.0547 1.03071 27.1667 1.3125 27.1667H20.4375C20.7193 27.1667 20.9895 27.0547 21.1888 26.8555C21.3881 26.6562 21.5 26.386 21.5 26.1042C21.5 25.8224 21.3881 25.5521 21.1888 25.3529C20.9895 25.1536 20.7193 25.0417 20.4375 25.0417H20.0833V22.4874C20.6762 22.7922 21.3375 22.9394 22.0037 22.915C22.6699 22.8906 23.3186 22.6954 23.8876 22.348C24.4565 22.0006 24.9267 21.5128 25.2528 20.9314C25.579 20.35 25.7502 19.6945 25.75 19.0279V10.7574C25.75 9.91447 25.4766 9.09427 24.9708 8.41991L23.4125 6.34167C23.2434 6.11623 22.9917 5.9672 22.7128 5.92734C22.4338 5.88749 22.1504 5.96009 21.925 6.12917C21.6996 6.29824 21.5505 6.54994 21.5107 6.8289C21.4708 7.10786 21.5434 7.39123 21.7125 7.61666L23.2708 9.69491C23.5003 10.0009 23.625 10.3749 23.625 10.7574V19.0279C23.625 19.2595 23.5794 19.4889 23.4907 19.7029C23.4021 19.9169 23.2722 20.1113 23.1084 20.2751C22.9446 20.4388 22.7502 20.5688 22.5362 20.6574C22.3222 20.746 22.0929 20.7917 21.8612 20.7917C21.6296 20.7917 21.4003 20.746 21.1863 20.6574C20.9723 20.5688 20.7779 20.4388 20.6141 20.2751C20.4503 20.1113 20.3204 19.9169 20.2318 19.7029C20.1431 19.4889 20.0975 19.2595 20.0975 19.0279V16.5417C20.0974 16.4842 20.0926 16.4269 20.0833 16.3702V4.14583C20.0833 3.63422 19.9826 3.12763 19.7868 2.65496C19.591 2.1823 19.304 1.75282 18.9423 1.39106C18.5805 1.0293 18.151 0.742336 17.6784 0.546553C17.2057 0.350769 16.6991 0.25 16.1875 0.25H5.5625ZM17.9583 25.0417H3.79167V4.14583C3.79167 3.16833 4.585 2.375 5.5625 2.375H16.1875C17.165 2.375 17.9583 3.16833 17.9583 4.14583V25.0417Z" fill="#A2A2A2"/>
</svg>
