<svg width="30" height="30" viewBox="0 0 30 30" fill="none" xmlns="http://www.w3.org/2000/svg">
<path d="M24.85 23.0875C25.45 22.125 25.7875 21 25.7125 19.7625C25.55 17.075 23.4125 14.8 20.75 14.5125C19.9617 14.4208 19.163 14.4969 18.4063 14.7359C17.6496 14.9748 16.952 15.3712 16.3593 15.8989C15.7666 16.4266 15.2924 17.0738 14.9676 17.7978C14.6428 18.5219 14.475 19.3065 14.475 20.1C14.475 23.2125 16.9875 25.725 20.0875 25.725C21.1875 25.725 22.2125 25.4 23.075 24.85L26.0875 27.8625C26.575 28.35 27.375 28.35 27.8625 27.8625C28.35 27.375 28.35 26.575 27.8625 26.0875L24.85 23.0875ZM20.1 23.225C19.2712 23.225 18.4763 22.8958 17.8903 22.3097C17.3042 21.7237 16.975 20.9288 16.975 20.1C16.975 19.2712 17.3042 18.4764 17.8903 17.8903C18.4763 17.3042 19.2712 16.975 20.1 16.975C20.9288 16.975 21.7236 17.3042 22.3097 17.8903C22.8957 18.4764 23.225 19.2712 23.225 20.1C23.225 20.9288 22.8957 21.7237 22.3097 22.3097C21.7236 22.8958 20.9288 23.225 20.1 23.225ZM19.65 12.6C18.725 12.625 17.8375 12.825 17.025 13.1625L16.3375 12.125L12.4875 18.3875C12.3846 18.5552 12.2436 18.6963 12.0759 18.7993C11.9082 18.9022 11.7186 18.9641 11.5225 18.98C11.3264 18.9958 11.1293 18.9651 10.9473 18.8904C10.7652 18.8157 10.6034 18.6991 10.475 18.55L7.82498 15.4625L3.99998 21.5875C3.61248 22.2 2.78748 22.3625 2.19998 21.9375C1.67498 21.55 1.52498 20.825 1.87498 20.2625L6.59998 12.7C7.04998 11.9875 8.06248 11.9125 8.61248 12.55L11.25 15.625L15.225 9.16251C15.3343 8.98391 15.4868 8.83576 15.6686 8.73177C15.8503 8.62778 16.0553 8.5713 16.2647 8.56756C16.474 8.56382 16.681 8.61294 16.8663 8.71038C17.0516 8.80782 17.2094 8.95043 17.325 9.12501L19.65 12.6ZM22.8875 13.225C22.0875 12.875 21.225 12.6625 20.325 12.6125L26 3.62501C26.3875 3.01251 27.2125 2.86251 27.7875 3.28751C28.325 3.67501 28.4625 4.41251 28.1125 4.96251L22.8875 13.225Z" fill="#595959"/>
</svg>
